# xmcd
#
# Track frame offsets:
#	183
#	15003
#	30325
#	44240
#	54010
#	68068
#	79875
#	93558
#	105613
#	125570
#	141578
#	164528
#	184073
#	200388
#	209190
#	224838
#
# Disc length: 3212 seconds
# Revision: 9
# Processed by: cddbd v1.5.2PL0 Copyright (c) Steve Scherf et al.
# Submitted via: dBpowerAMP V12.0
#
DISCID=ef0c8a10
DTITLE=B.B. King - B.B.'s Boogie [16148CD]
DYEAR=1993
DGENRE=Blues
TTITLE0=B.B. Boogie
TTITLE1=Precious Lord
TTITLE2=Servant's Prayer
TTITLE3=Swing Low, Sweet Chariot - Rock Me Lord
TTITLE4=Save a Seat for Me
TTITLE5=I Never Heard a Man
TTITLE6=Army of the Lord
TTITLE7=Paying the Cost to Be the Boss
TTITLE8=How Blue Can You Get?
TTITLE9=The Letter
TTITLE10=Every Day I Have the Blues
TTITLE11=Sweet Sixteen [Parts 1 and 2]
TTITLE12=The Other Night Blues
TTITLE13=A New Way of Driving
TTITLE14=Walkin' and Cryin'
TTITLE15=It's My Own Fault [, Baby]
EXTD=
EXTT0=
EXTT1=
EXTT2=
EXTT3=
EXTT4=
EXTT5=
EXTT6=
EXTT7=
EXTT8=
EXTT9=
EXTT10=
EXTT11=
EXTT12=
EXTT13=
EXTT14=
EXTT15=
PLAYORDER=
